<svg xmlns="http://www.w3.org/2000/svg" width="1600" height="820" viewBox="0 0 1600 820">
<rect width="1600" height="820" fill="#fff"/>
<g font-family="Arial, Helvetica, sans-serif" fill="#111">
<text x="70" y="68" font-size="32" font-weight="800">Locked Test Benchmark</text>
<text x="70" y="102" font-size="17" fill="#555">UNSW-NB15 held-out testing split • same Random Forest evaluation model</text>
</g>
<g stroke="#111" stroke-width="2" fill="none"><line x1="90" y1="610" x2="1000" y2="610"/><line x1="90" y1="150" x2="90" y2="610"/></g>
<g font-family="Arial" font-size="14" fill="#555"><text x="55" y="615">0.0</text><text x="55" y="500">0.25</text><text x="55" y="385">0.50</text><text x="55" y="270">0.75</text><text x="55" y="155">1.0</text></g>
<g fill="#111" font-family="Arial" font-size="15" font-weight="700">
<rect x="125" y="199" width="105" height="411"/><text x="152" y="180">0.894</text>
<rect x="270" y="229" width="105" height="381"/><text x="297" y="210">0.829</text>
<rect x="415" y="193" width="105" height="417"/><text x="442" y="174">0.908</text>
<rect x="560" y="221" width="105" height="389"/><text x="587" y="202">0.848</text>
<rect x="705" y="224" width="105" height="386"/><text x="732" y="205">0.839</text>
<rect x="850" y="207" width="105" height="403"/><text x="877" y="188">0.879</text>
</g>
<g font-family="Arial" font-size="14" fill="#111" text-anchor="middle"><text x="177" y="645">All-42</text><text x="322" y="645">QAOA-4</text><text x="467" y="645">MI-4</text><text x="612" y="645">ANOVA-4</text><text x="757" y="645">L1-4</text><text x="902" y="645">RF-4</text></g>
<g font-family="Arial" fill="#111">
<rect x="1050" y="145" width="460" height="500" fill="#fff" stroke="#111" stroke-width="2" rx="16"/>
<text x="1080" y="190" font-size="24" font-weight="800">Reference values</text>
<text x="1080" y="235" font-size="17">QAOA-4</text><text x="1240" y="235" font-size="17" font-weight="700">F1 0.829355</text><text x="1370" y="235" font-size="14" fill="#555">ROC-AUC 0.850748</text>
<text x="1080" y="275" font-size="17">MI-4</text><text x="1240" y="275" font-size="17" font-weight="700">F1 0.908461</text><text x="1370" y="275" font-size="14" fill="#555">ROC-AUC 0.969565</text>
<text x="1080" y="315" font-size="17">RF-4</text><text x="1240" y="315" font-size="17" font-weight="700">F1 0.878545</text><text x="1370" y="315" font-size="14" fill="#555">ROC-AUC 0.957890</text>
<text x="1080" y="355" font-size="17">All-42</text><text x="1240" y="355" font-size="17" font-weight="700">F1 0.894034</text><text x="1370" y="355" font-size="14" fill="#555">ROC-AUC 0.980430</text>
<line x1="1080" y1="390" x2="1480" y2="390" stroke="#111"/>
<text x="1080" y="430" font-size="17" font-weight="700">Compact representation</text>
<text x="1080" y="463" font-size="18">42 → 4 predictors</text>
<text x="1080" y="493" font-size="18">90.48% feature reduction</text>
<text x="1080" y="540" font-size="14" fill="#555">The locked test does not establish</text>
<text x="1080" y="562" font-size="14" fill="#555">predictive superiority for QAOA.</text>
<text x="1080" y="584" font-size="14" fill="#555">The study evaluates QAOA as an</text>
<text x="1080" y="606" font-size="14" fill="#555">optimization-based feature selector.</text>
</g>
</svg>
